<svg id="Layer_1" data-name="Layer 1" xmlns="http://www.w3.org/2000/svg" xmlns:xlink="http://www.w3.org/1999/xlink" viewBox="0 0 954 457"><defs><style>.cls-1{fill:#fff; opacity:0.45}.cls-2{fill:#76e1f3;}.cls-3{opacity:0.45;fill:url(#linear-gradient);}.cls-4{fill:#09cbea;}</style><linearGradient id="linear-gradient" x1="8.75" y1="34.02" x2="31.23" y2="20.87" gradientTransform="matrix(1, -0.07, 0.07, 1, 131.83, 247.28)" gradientUnits="userSpaceOnUse"><stop offset="0" stop-color="#00bfd4"/><stop offset="0.07" stop-color="#00b9cf" stop-opacity="0.92"/><stop offset="0.53" stop-color="#0095af" stop-opacity="0.43"/><stop offset="0.85" stop-color="#007e9c" stop-opacity="0.12"/><stop offset="1" stop-color="#007594" stop-opacity="0"/></linearGradient></defs><title>Mesa de trabajo 4 copia</title><rect class="cls-1" width="954" height="457"/><path d="M297.85,118.12V224l32.58-32.38h31l-43.48,42,46.67,58.07h-30l-33.09-42.24-3.7,3.7v38.54H274.72V118.12Z"/><path d="M518.32,191.61h23.23V291.72H518.32V281.24Q504,294.6,487.59,294.6q-20.76,0-34.33-15-13.47-15.31-13.47-38.23,0-22.52,13.47-37.52a43.42,43.42,0,0,1,33.71-15q17.47,0,31.35,14.39Zm-54.89,49.75q0,14.38,7.71,23.43a25.26,25.26,0,0,0,19.94,9.15q12.85,0,20.77-8.84,7.9-9.15,7.91-23.23t-7.91-23.23q-7.92-8.94-20.56-8.94a25.56,25.56,0,0,0-19.94,9.05Q463.43,227.89,463.43,241.36Z"/><path d="M658.83,118.12v173.6H635.7V118.12Z"/><path d="M826.89,191.61h23.23V291.72H826.89V281.24Q812.6,294.6,796.15,294.6q-20.76,0-34.33-15-13.47-15.31-13.46-38.23,0-22.52,13.46-37.52a43.44,43.44,0,0,1,33.72-15q17.46,0,31.35,14.39ZM772,241.36q0,14.38,7.71,23.43a25.23,25.23,0,0,0,19.94,9.15q12.84,0,20.76-8.84,7.92-9.15,7.92-23.23t-7.92-23.23q-7.92-8.94-20.56-8.94a25.58,25.58,0,0,0-19.94,9.05Q772,227.89,772,241.36Z"/><path class="cls-2" d="M93.63,213.6l-.1-.45c-.1-.46.76-2.4,2.52-6.06l-.13-.09a26.59,26.59,0,0,1,2.8-4.33.42.42,0,0,0,.48-.27,4.44,4.44,0,0,1,0,1,27.37,27.37,0,0,1-2.32,5l-1.94,4.32c-.15.29-.3.58-.5.64a2,2,0,0,1-.68.32Zm9.14-16.37-.12-.08c-.13-.09-.06-.23-.11-.46s.1-.51.33-.94a133.78,133.78,0,0,1,14.48-17.48l8.42-7.59A14.25,14.25,0,0,0,130.1,166a11.89,11.89,0,0,1,3.07-2.61c1.87-1.28,3.18-2.16,4.13-2.68l1.44-.8a1.36,1.36,0,0,1,.93-.16,12.93,12.93,0,0,0,6.27-2.24l.28-.2a81,81,0,0,1,19.33-7.37c3.55-.94,5.79-1,6.8-.35l.51.33c-.21.06-.28.21-.48.27a10.79,10.79,0,0,1-2.07.37,80.7,80.7,0,0,0-11.31,2.8l-3.86,1.51a101.27,101.27,0,0,0-14,7.21q-4.12,2.5-7.86,5.25l0,.23a118.6,118.6,0,0,0-29.57,29.37c-.23.43-.5.63-.88.38Zm12.8,87.09a46.23,46.23,0,0,0,26.12,8.08,5.13,5.13,0,0,0,3.35-.88,12,12,0,0,1,4.66-1.76,45.38,45.38,0,0,0,17.56-7.56c13.18-8.9,24.66-21,34.51-36.16,1-1.63,2.06-3.27,3-5.13a63.17,63.17,0,0,0,3.8-8.5l1.16-2.51a8.4,8.4,0,0,1,1.24-1.7,4.25,4.25,0,0,0,1.15-1.55,6.16,6.16,0,0,0,.36-4.21,11.5,11.5,0,0,1,.9-7.51,11.34,11.34,0,0,0,1-5.35l-.07-.82c-.18-2.24-.56-4.41-.94-6.59a2.13,2.13,0,0,1,.28-1.17.54.54,0,0,0,.3.39,7.21,7.21,0,0,1,1.49,3.29,9.71,9.71,0,0,0,1.18,2.9,4.15,4.15,0,0,0,.36-1.31A43.81,43.81,0,0,0,211,189c-3.53-5.21-6.89-9.15-10.27-11.75l-.17-.31-3-2.13a11.29,11.29,0,0,0-3.48-1.13l-.76-.5-2.85-2.64c-.25-.16-1.51,0-3.85.56a2.33,2.33,0,0,0-1.87,1.28,3.21,3.21,0,0,0-.15,2.21,1,1,0,0,1,0,1,1.38,1.38,0,0,1-.75.47,4.27,4.27,0,0,1-4.18-.44c-3.76-1.89-6.05-2-7-.32a1.82,1.82,0,0,0-.13,1.84,13.53,13.53,0,0,0,4.87,5.9,12.94,12.94,0,0,1,2.12,1.78,12.94,12.94,0,0,0,3.81,4l2.7,2a4.53,4.53,0,0,0,1.18,1,1.11,1.11,0,0,1,.3,1.35,2.45,2.45,0,0,1-.63.55c-.27.21-.55.41-.83.61a3.15,3.15,0,0,0-.63.55c-.38.72-.55,2.34-.25,4.66a7.8,7.8,0,0,0,1.57,3.15,28.39,28.39,0,0,1,2.12,2.74.54.54,0,0,0,.3.39c.18.31.18.31.3.39,2.3,4,2.48,9.15.26,15.6-.25.8-.42,1.46-.68,2.25s-.7,1.66-1,2.61a21.57,21.57,0,0,1-1.31,2.8,59.2,59.2,0,0,1-3.77,6.2,39.31,39.31,0,0,0-2.75,4.56l-1.46,3.09c-.58.78-1.66,2.19-3.45,4.29-10.48,11.83-20,18.53-28.69,20.3a26.87,26.87,0,0,1-14.57-1.66l-3.5-1.72c-2.27-1.49-4.09-2.87-5.53-4a14.44,14.44,0,0,0-2.34-2.31,65,65,0,0,1-6-8.57,26.92,26.92,0,0,0-1.19-2.9,26.36,26.36,0,0,1-1.06-2.82c-.66-2.94-.93-4.66-1-4.89a3.11,3.11,0,0,0-.12-1.05,26.21,26.21,0,0,1,.4-7.84l.52-2.93.38-.71,0-.37a53.58,53.58,0,0,1,3.85-9.24,80.1,80.1,0,0,1,17.35-22c1.89-1.65,3.83-3.08,5.84-4.65a25.88,25.88,0,0,0,5-6l2.14-1.49c2.24-2,4.48-3,7-2.94a5,5,0,0,0,3.52-2.5,2.83,2.83,0,0,1,2.72-1.3c1.11.15,2.42.24,3.86.41s2.32-.21,2.85-1.22c.8-1.2,1.81-1.5,3.2-.59.38.24.65,0,1-.68,1-1.86,2-2.9,3.1-3l.2-.06a1.87,1.87,0,0,0,1.08-.45c1.82-1.51,4.06-1.58,6.78,0a1.56,1.56,0,0,1,.56.55,2.23,2.23,0,0,0,.6.79l.33,0a2.5,2.5,0,0,1,2,.36,5.28,5.28,0,0,1,1.41,1.5l.25.17a12.59,12.59,0,0,0,3.1,2.81,19.06,19.06,0,0,0,4,2.05c.45.11.93-.16,1.31-.87.23-.43.38-.72.25-.8a6.86,6.86,0,0,0-.86-1.92,21.25,21.25,0,0,1-1.61-4.33,5.47,5.47,0,0,0-.88-1.55c-1-.66-1.21-1.56-.53-2.85a1.48,1.48,0,0,1,1.23-.74,5.8,5.8,0,0,1,1.51,0,2.07,2.07,0,0,0,1,.07,1.56,1.56,0,0,0,0-1,6,6,0,0,0-1.86-3.54,23.16,23.16,0,0,0-3.31-3.72l-1.08-.52c-9.15-3.88-18.75-4-28.88-.26q-24.42,9.13-44.14,30.6a95.86,95.86,0,0,0-13.77,19.69c-3.7,7-5.92,12.51-6.52,16.55l-.9,5.58a30.35,30.35,0,0,0-.38,6.5,37.44,37.44,0,0,0,.26,5l.3,2.32a14.85,14.85,0,0,0,.71,3.16,51.59,51.59,0,0,0,22.77,33.09l4.62,2.83a2.85,2.85,0,0,1,.8.73,6.18,6.18,0,0,0,.61.78,3.75,3.75,0,0,1-1.66.26,44,44,0,0,1-7.16-4.13,34.48,34.48,0,0,0-3.33-2.38,25.12,25.12,0,0,0-3.56-1.94,1.45,1.45,0,0,1-.53-.93c-.22-.54-.4-.84-.45-1.07s-.3-.39-.35-.62-.31-.39-.36-.62a1.48,1.48,0,0,0-.55-.55l-1.59-.85a17.68,17.68,0,0,1-5.9-7.16,59.47,59.47,0,0,1-7.4-21l0-.37a37.29,37.29,0,0,1-.66-4.87,8,8,0,0,0-.81-1.69c-.22.43-.38.72-.32,1s.3,3.28.88,9.26l.28.76a54.55,54.55,0,0,0,9.79,22.63,57.4,57.4,0,0,0,15.18,15Zm0,0a46.23,46.23,0,0,0,26.12,8.08,5.13,5.13,0,0,0,3.35-.88,12,12,0,0,1,4.66-1.76,45.38,45.38,0,0,0,17.56-7.56c13.18-8.9,24.66-21,34.51-36.16,1-1.63,2.06-3.27,3-5.13a63.17,63.17,0,0,0,3.8-8.5l1.16-2.51a8.4,8.4,0,0,1,1.24-1.7,4.25,4.25,0,0,0,1.15-1.55,6.16,6.16,0,0,0,.36-4.21,11.5,11.5,0,0,1,.9-7.51,11.34,11.34,0,0,0,1-5.35l-.07-.82c-.18-2.24-.56-4.41-.94-6.59a2.13,2.13,0,0,1,.28-1.17.54.54,0,0,0,.3.39,7.21,7.21,0,0,1,1.49,3.29,9.71,9.71,0,0,0,1.18,2.9,4.15,4.15,0,0,0,.36-1.31A43.81,43.81,0,0,0,211,189c-3.53-5.21-6.89-9.15-10.27-11.75l-.17-.31-3-2.13a11.29,11.29,0,0,0-3.48-1.13l-.76-.5-2.85-2.64c-.25-.16-1.51,0-3.85.56a2.33,2.33,0,0,0-1.87,1.28,3.21,3.21,0,0,0-.15,2.21,1,1,0,0,1,0,1,1.38,1.38,0,0,1-.75.47,4.27,4.27,0,0,1-4.18-.44c-3.76-1.89-6.05-2-7-.32a1.82,1.82,0,0,0-.13,1.84,13.53,13.53,0,0,0,4.87,5.9,12.94,12.94,0,0,1,2.12,1.78,12.94,12.94,0,0,0,3.81,4l2.7,2a4.53,4.53,0,0,0,1.18,1,1.11,1.11,0,0,1,.3,1.35,2.45,2.45,0,0,1-.63.55c-.27.21-.55.41-.83.61a3.15,3.15,0,0,0-.63.55c-.38.72-.55,2.34-.25,4.66a7.8,7.8,0,0,0,1.57,3.15,28.39,28.39,0,0,1,2.12,2.74.54.54,0,0,0,.3.39c.18.31.18.31.3.39,2.3,4,2.48,9.15.26,15.6-.25.8-.42,1.46-.68,2.25s-.7,1.66-1,2.61a21.57,21.57,0,0,1-1.31,2.8,59.2,59.2,0,0,1-3.77,6.2,39.31,39.31,0,0,0-2.75,4.56l-1.46,3.09c-.58.78-1.66,2.19-3.45,4.29-10.48,11.83-20,18.53-28.69,20.3a26.87,26.87,0,0,1-14.57-1.66l-3.5-1.72c-2.27-1.49-4.09-2.87-5.53-4a14.44,14.44,0,0,0-2.34-2.31,65,65,0,0,1-6-8.57,26.92,26.92,0,0,0-1.19-2.9,26.36,26.36,0,0,1-1.06-2.82c-.66-2.94-.93-4.66-1-4.89a3.11,3.11,0,0,0-.12-1.05,26.21,26.21,0,0,1,.4-7.84l.52-2.93.38-.71,0-.37a53.58,53.58,0,0,1,3.85-9.24,80.1,80.1,0,0,1,17.35-22c1.89-1.65,3.83-3.08,5.84-4.65a25.88,25.88,0,0,0,5-6l2.14-1.49c2.24-2,4.48-3,7-2.94a5,5,0,0,0,3.52-2.5,2.83,2.83,0,0,1,2.72-1.3c1.11.15,2.42.24,3.86.41s2.32-.21,2.85-1.22c.8-1.2,1.81-1.5,3.2-.59.38.24.65,0,1-.68,1-1.86,2-2.9,3.1-3l.2-.06a1.87,1.87,0,0,0,1.08-.45c1.82-1.51,4.06-1.58,6.78,0a1.56,1.56,0,0,1,.56.55,2.23,2.23,0,0,0,.6.79l.33,0a2.5,2.5,0,0,1,2,.36,5.28,5.28,0,0,1,1.41,1.5l.25.17a12.59,12.59,0,0,0,3.1,2.81,19.06,19.06,0,0,0,4,2.05c.45.11.93-.16,1.31-.87.23-.43.38-.72.25-.8a6.86,6.86,0,0,0-.86-1.92,21.25,21.25,0,0,1-1.61-4.33,5.47,5.47,0,0,0-.88-1.55c-1-.66-1.21-1.56-.53-2.85a1.48,1.48,0,0,1,1.23-.74,5.8,5.8,0,0,1,1.51,0,2.07,2.07,0,0,0,1,.07,1.56,1.56,0,0,0,0-1,6,6,0,0,0-1.86-3.54,23.16,23.16,0,0,0-3.31-3.72l-1.08-.52c-9.15-3.88-18.75-4-28.88-.26q-24.42,9.13-44.14,30.6a95.86,95.86,0,0,0-13.77,19.69c-3.7,7-5.92,12.51-6.52,16.55l-.9,5.58a30.35,30.35,0,0,0-.38,6.5,37.44,37.44,0,0,0,.26,5l.3,2.32a14.85,14.85,0,0,0,.71,3.16,51.59,51.59,0,0,0,22.77,33.09l4.62,2.83a2.85,2.85,0,0,1,.8.73,6.18,6.18,0,0,0,.61.78,3.75,3.75,0,0,1-1.66.26,44,44,0,0,1-7.16-4.13,34.48,34.48,0,0,0-3.33-2.38,25.12,25.12,0,0,0-3.56-1.94,1.45,1.45,0,0,1-.53-.93c-.22-.54-.4-.84-.45-1.07s-.3-.39-.35-.62-.31-.39-.36-.62a1.48,1.48,0,0,0-.55-.55l-1.59-.85a17.68,17.68,0,0,1-5.9-7.16,59.47,59.47,0,0,1-7.4-21l0-.37a37.29,37.29,0,0,1-.66-4.87,8,8,0,0,0-.81-1.69c-.22.43-.38.72-.32,1s.3,3.28.88,9.26l.28.76a54.55,54.55,0,0,0,9.79,22.63,57.4,57.4,0,0,0,15.18,15Zm57.7-119.09c-.38-.24-.43-.47-.28-.76s1-.53,2.34-.58a27.63,27.63,0,0,1,12,3.27c.88.58,1.33,1.65,1.28,3.35-.22.43-.3.57-.42.49a.49.49,0,0,0-.46-.1,22.08,22.08,0,0,1-4.11-1.55,5.53,5.53,0,0,1-2.11-.81l-2.25-.89a2.23,2.23,0,0,1-.6-.79,1.17,1.17,0,0,0-.61-.78,3.21,3.21,0,0,0-2.47-.46Zm15-12.1a6.57,6.57,0,0,1-.61-.79,2,2,0,0,1,.68-.32c.2-.06.33,0,.53,0a1,1,0,0,1,.58.19c.25.16.25.16.45.1.76.5,1.06.89.91,1.18s-.4.12-.85,0a4.06,4.06,0,0,1-1.16-.37ZM138.38,288.69l-.8-.72.43-.49c2-.24,3-.32,3.42-.07l.76.5c.13.08.25.16.17.31a1.33,1.33,0,0,1-1.48.56c-.66,0-1.19,0-1.51,0a3,3,0,0,0-.86,0Zm68-89.6-.53-.92.48-.27Zm1.78,27.2c-.05-.22,0-.59-.08-.82a3.36,3.36,0,0,1-.13-1,52.61,52.61,0,0,0,1.38-9.7l.84-1.58.17.31c.36.62.26,3.06-.35,7.1l.2-.06L209,225.31c-.07.15-.22.43-.42.49a.62.62,0,0,0-.36.35Z"/><path class="cls-3" d="M137.52,267.8c1.62.13,11.65,4.21,26.3-9,0,0-1.34,14.34,30.36-2.15,0,0-14.19,22.73-35.81,23.06S137.52,267.8,137.52,267.8Z"/><path class="cls-4" d="M188.24,198.29a13.22,13.22,0,0,1-2.11-1.49,18.79,18.79,0,0,0-.83-3.16l-1.61-3.29-.22-.23A63.38,63.38,0,0,0,174.86,178a35.52,35.52,0,0,0-12.29-8.78,1.9,1.9,0,0,0-.9.14,8.5,8.5,0,0,0,2.07,1.65,6.53,6.53,0,0,1,2.36,2,.64.64,0,0,0,.29.36,1,1,0,0,1-.81.09,43.47,43.47,0,0,0-4.64-2l-.58-.21a5.25,5.25,0,0,0-3.7.09,5.65,5.65,0,0,1-5.21-.31,3.09,3.09,0,0,0-2.92-.32,2.2,2.2,0,0,0-1,.91,5,5,0,0,1-1.14,1l-1.72.75a28.52,28.52,0,0,0-5.78,2.43,33.81,33.81,0,0,0-3.47,2.22,75.87,75.87,0,0,0-23.92,28.67A45.94,45.94,0,0,0,106.87,223a13.09,13.09,0,0,1-1.05,4.37,5.91,5.91,0,0,0-.49,3.21A72.37,72.37,0,0,0,112,258v-1a76.6,76.6,0,0,0,11.06,17.58,48.74,48.74,0,0,0,16.19,13.43l.55.4c4.19,1.55,6.34,2.29,6.5,2.38s.36,0,.65-.17a7.09,7.09,0,0,0-1.21-1.08,25.45,25.45,0,0,1-3.43-1.44l-.26,0a48.86,48.86,0,0,1-15-10.78,21.68,21.68,0,0,1-5.23-7l-.65-1.73a2.19,2.19,0,0,0-.41-.64c-.16-.09-.29-.37-.45-.45s-.28-.37-.44-.46a8.78,8.78,0,0,1-.77-.62,1.47,1.47,0,0,1-.67-.68,40,40,0,0,0-1.5-3.87c-.62-1.39-1.19-2.64-1.79-3.71a68.83,68.83,0,0,1-3.16-7.82,4.87,4.87,0,0,1,.12-1.62,5.84,5.84,0,0,0,.57.73,4.52,4.52,0,0,1,.54.93l2.16,5.06c6,13.24,13.93,22.62,24,28.1a10.64,10.64,0,0,0,2.24,1.21l1.63.68a21.2,21.2,0,0,0,3.5,1.06,15.34,15.34,0,0,0,4.53.67h3.86c2.8.05,6.54-1.28,11.3-3.85a48.33,48.33,0,0,0,13.22-10.6c.28-.31.53-.65.8-1-1.41.59-2.81,1.14-4.16,1.66-10.49,4-20.65,7.44-31.24.93-6.25-3.83-10.94-9.93-14.78-16.47s-7.86-13.37-7.9-21.21a36.5,36.5,0,0,1-.11-6.91c.9-8.46,5.21-16.85,13.07-25.41,1.4-1.45,2.34-2.31,2.86-2.76l2.1-1a20.25,20.25,0,0,0,3.08-2,28.09,28.09,0,0,1,4.18-2.78,10.2,10.2,0,0,1,1.91-.86c.65-.17,1.23-.49,1.78-.61s1-.19,1.55-.32c4.42-1.17,8-.17,10.91,2.77.06.14.06.14.28.37a.64.64,0,0,0,.29.36,32,32,0,0,1,2,2.56,7.33,7.33,0,0,0,2.27,2.07c1.63.68,2.75.77,3.24.51a1.77,1.77,0,0,0,.36-.55l.39-.73a1.88,1.88,0,0,1,.36-.54c.29-.16.61,0,1,.52a5.92,5.92,0,0,0,.73,1.34l1.48,3a16.56,16.56,0,0,0,3,4.45,18.93,18.93,0,0,1,1.32,2.41,16.48,16.48,0,0,0,4.31,5.81,1,1,0,0,0,1.19.21,16.45,16.45,0,0,1-.32-4.54,9.15,9.15,0,0,1,.28-1.42c-.11-.35-.23-.7-.36-1.08a6.25,6.25,0,0,1-.47-4.26,1,1,0,0,1,.3-.67.54.54,0,0,1,.67.15,1.63,1.63,0,0,0,1.55.21,1.33,1.33,0,0,0,.3-.23,3.4,3.4,0,0,1,.1,1.39l0,.34a1.28,1.28,0,0,0,.14.21,14.89,14.89,0,0,0,1.38-2.07,3.47,3.47,0,0,0,.14-1.28c-.12-1.23-.28-2.46-.46-3.68-.14-1-.31-1.93-.5-2.88C188.5,198.51,188.37,198.39,188.24,198.29Z"/><path d="M173.46,346.7l8.06,20.2,8.17-20.2h4.82L181.43,378,168.65,346.7Z"/><path d="M220.55,368.77H208.07l-3.24,7.08h-4.74l14.42-31,13.91,31h-4.81Zm-1.79-4.14-4.33-9.91-4.53,9.91Z"/><path d="M244.19,346.7v25h8.57v4.14h-13V346.7Z"/><path d="M269.06,346.7v25h8.57v4.14h-13V346.7Z"/><path d="M308.27,368.77H295.8l-3.25,7.08h-4.74l14.42-31,13.92,31h-4.82Zm-1.79-4.14-4.32-9.91-4.53,9.91Z"/><path d="M337.39,363.43l9,12.42H341l-8.32-11.93h-.79v11.93h-4.4V346.7h5.15c3.85,0,6.63.73,8.34,2.17a8,8,0,0,1,2.84,6.38,8.32,8.32,0,0,1-1.78,5.33A7.94,7.94,0,0,1,337.39,363.43Zm-5.47-3.35h1.39q6.26,0,6.25-4.77,0-4.47-6.08-4.47h-1.56Z"/><path d="M366.22,350.84v25h-4.39v-25h-6.7V346.7H372.9v4.14Z"/><path d="M400.1,368.77H387.62l-3.25,7.08h-4.73l14.42-31,13.91,31h-4.82Zm-1.8-4.14L394,354.72l-4.53,9.91Z"/><path d="M455.48,351l-3.57,2.12a6.18,6.18,0,0,0-1.91-2.27,5.07,5.07,0,0,0-5.47.44,3.23,3.23,0,0,0-1.21,2.56c0,1.43,1.06,2.57,3.17,3.44l2.91,1.19a12.27,12.27,0,0,1,5.19,3.5,7.87,7.87,0,0,1,1.64,5.07,8.88,8.88,0,0,1-2.68,6.64,9.2,9.2,0,0,1-6.7,2.64,9,9,0,0,1-6.26-2.24,10.31,10.31,0,0,1-3-6.33l4.45-1a7.55,7.55,0,0,0,1.06,3.55,5,5,0,0,0,7.38.51,5.17,5.17,0,0,0,1.12-5.05,4.09,4.09,0,0,0-.73-1.3,5.78,5.78,0,0,0-1.3-1.11,12.13,12.13,0,0,0-1.88-1l-2.82-1.18q-6-2.52-6-7.39a7.06,7.06,0,0,1,2.51-5.5,9.09,9.09,0,0,1,6.25-2.22Q452.65,346.14,455.48,351Z"/><path d="M473.67,346.7v17.56c0,2.5.4,4.33,1.22,5.49a6.57,6.57,0,0,0,10.33,0q1.21-1.68,1.22-5.49V346.7h4.4v18.76a10.46,10.46,0,0,1-2.87,7.59,11.09,11.09,0,0,1-15.83,0,10.46,10.46,0,0,1-2.87-7.59V346.7Z"/><path d="M515.43,363.43l9,12.42h-5.38l-8.32-11.93H510v11.93h-4.39V346.7h5.15c3.85,0,6.63.73,8.34,2.17a8,8,0,0,1,2.83,6.38,8.31,8.31,0,0,1-1.77,5.33A7.94,7.94,0,0,1,515.43,363.43ZM510,360.08h1.4q6.25,0,6.25-4.77,0-4.47-6.08-4.47H510Z"/><path d="M551.11,350.84H541v7h9.79V362H541v13.88h-4.4V346.7h14.55Z"/><path d="M600.08,351l-3.57,2.12a6.18,6.18,0,0,0-1.91-2.27,5.07,5.07,0,0,0-5.47.44,3.2,3.2,0,0,0-1.21,2.56c0,1.43,1.06,2.57,3.17,3.44l2.91,1.19a12.27,12.27,0,0,1,5.19,3.5,7.87,7.87,0,0,1,1.64,5.07,8.88,8.88,0,0,1-2.68,6.64,9.2,9.2,0,0,1-6.7,2.64,9,9,0,0,1-6.26-2.24,10.31,10.31,0,0,1-3-6.33l4.45-1a7.43,7.43,0,0,0,1.06,3.55,5,5,0,0,0,7.38.51,5.17,5.17,0,0,0,1.12-5.05,4.09,4.09,0,0,0-.73-1.3,5.78,5.78,0,0,0-1.3-1.11,11.82,11.82,0,0,0-1.89-1l-2.81-1.18q-6-2.52-6-7.39a7.06,7.06,0,0,1,2.51-5.5,9.09,9.09,0,0,1,6.25-2.22Q597.25,346.14,600.08,351Z"/><path d="M635.4,348.27v5.21a12.17,12.17,0,0,0-7.89-3.19,10,10,0,0,0-7.57,3.23,10.88,10.88,0,0,0-3.09,7.85,10.63,10.63,0,0,0,3.09,7.74,10.25,10.25,0,0,0,7.59,3.15,9.25,9.25,0,0,0,4-.76,10.9,10.9,0,0,0,1.87-1,20.29,20.29,0,0,0,2-1.54v5.3a15.88,15.88,0,0,1-7.92,2.13A14.63,14.63,0,0,1,616.81,372a14.45,14.45,0,0,1-4.4-10.6,15,15,0,0,1,3.68-9.93,14.66,14.66,0,0,1,11.72-5.34A14.89,14.89,0,0,1,635.4,348.27Z"/><path d="M653.89,358.1h12.57V346.7h4.4v29.15h-4.4V362.24H653.89v13.61H649.5V346.7h4.39Z"/><path d="M684.12,361.14a14.28,14.28,0,0,1,4.52-10.57,14.85,14.85,0,0,1,10.79-4.42,15.26,15.26,0,0,1,15.16,15.16A14.36,14.36,0,0,1,710.1,372a15.42,15.42,0,0,1-21,.49A14.32,14.32,0,0,1,684.12,361.14Zm4.44.06A10.8,10.8,0,0,0,707,369.09a11.32,11.32,0,0,0,0-15.63,10.88,10.88,0,0,0-15.35,0A10.51,10.51,0,0,0,688.56,361.2Z"/><path d="M726.4,361.14a14.27,14.27,0,0,1,4.51-10.57,14.85,14.85,0,0,1,10.79-4.42,15.25,15.25,0,0,1,15.16,15.16A14.36,14.36,0,0,1,752.37,372a15.42,15.42,0,0,1-21,.49A14.31,14.31,0,0,1,726.4,361.14Zm4.43.06a10.8,10.8,0,0,0,18.44,7.89,11.3,11.3,0,0,0,0-15.63,10.86,10.86,0,0,0-15.34,0A10.52,10.52,0,0,0,730.83,361.2Z"/><path d="M774.52,346.7v25h8.57v4.14h-13V346.7Z"/><path d="M105.26,350.8c.35-.09-.37,0,0,0Z"/><path d="M106.23,358.21h0Z"/><path d="M851.07,352.07q-27,1.41-54.09.34c-.07,1.41-.13,2.82-.2,4.23,33.61.44,55.94-2.4,55.87-3.55C852.62,352.49,851.91,352,851.07,352.07Z"/><path d="M160,350.38q-27.34,1.5-54.76.58c-5.59,1.11-5.31,6.81.44,7.42l.62,0c3.35.05,24.16.91,54-.88C160.23,355.15,160.11,352.77,160,350.38Z"/><path d="M116.81,357.61s3.18,16.2-1,20c-3.26,4.84,24,.22,25-18.77Z"/></svg>