<svg id="Capa_1" data-name="Capa 1" xmlns="http://www.w3.org/2000/svg" viewBox="0 0 150 150"><defs><style>.cls-1{fill:#ffffff;}</style></defs><title>combi</title><path class="cls-1" d="M106.15,137.73a20.31,20.31,0,1,1,20.31-20.31A20.33,20.33,0,0,1,106.15,137.73Zm0-37a16.68,16.68,0,1,0,16.68,16.67A16.69,16.69,0,0,0,106.15,100.75Z"/><path class="cls-1" d="M106.15,127.4a10,10,0,1,1,10-10A10,10,0,0,1,106.15,127.4Zm0-16.32a6.34,6.34,0,1,0,6.34,6.34A6.35,6.35,0,0,0,106.15,111.08Z"/><path class="cls-1" d="M36.54,137.73a20.31,20.31,0,0,1-15.63-33.28c.58-1,.93-1.08,10.37-1,5,.05,10.95.18,15.22.33,6.18.22,6.85.25,7.38,1.27,2.63,3.69,3,8.53,3,12.36A20.34,20.34,0,0,1,36.54,137.73ZM23.41,107.14a16.67,16.67,0,1,0,29.8,10.28c0-3.1-.23-7-2-9.76C47.23,107.31,27.29,106.93,23.41,107.14Z"/><path class="cls-1" d="M36.54,127.4a10,10,0,1,1,10-10A10,10,0,0,1,36.54,127.4Zm0-16.32a6.34,6.34,0,1,0,6.34,6.34A6.35,6.35,0,0,0,36.54,111.08Z"/><path class="cls-1" d="M127.55,120.33H18.4a7.62,7.62,0,0,1-7.61-7.61V46.33A12.33,12.33,0,0,1,23.1,34h85.52a26.57,26.57,0,0,1,26.54,26.54v52.16A7.62,7.62,0,0,1,127.55,120.33ZM23.1,37.66a8.69,8.69,0,0,0-8.68,8.67v66.39a4,4,0,0,0,4,4H127.55a4,4,0,0,0,4-4V60.56a22.93,22.93,0,0,0-22.91-22.9Z"/><rect class="cls-1" x="13.69" y="26.05" width="109.86" height="3.26" rx="1.5"/><path class="cls-1" d="M53.94,27.87H33.27A1.83,1.83,0,0,1,31.74,27a1.85,1.85,0,0,1-.16-1.65c.1-1.23-2.33-6-5.25-10.28a1.83,1.83,0,0,1-.06-1.95A1.81,1.81,0,0,1,28,12.28C41.46,13.51,54.55,24.2,55.1,24.65a1.82,1.82,0,0,1-1.16,3.22ZM31.62,25.3Zm3.43-1.07H48.31c-4-2.63-10.22-6.17-16.73-7.69A26.62,26.62,0,0,1,35.05,24.23Z"/><path class="cls-1" d="M87,121.23a5.48,5.48,0,0,1-.64-6.53H55.86a5.53,5.53,0,0,1-.28,6.53Z"/><path class="cls-1" d="M15.83,114.78H9a2.73,2.73,0,0,0-2.73,2.73V118A2.73,2.73,0,0,0,9,120.73h7.09A5,5,0,0,1,15.83,114.78Z"/><path class="cls-1" d="M137.42,114.7H125.71a5.51,5.51,0,0,1,.09,6.53h11.62a3,3,0,0,0,3-3v-.53A3,3,0,0,0,137.42,114.7Z"/><path class="cls-1" d="M132.8,106.73a9.43,9.43,0,0,1,0-18.86h1.95l-.13,1.94c-.43,5.93-.67,13.07-.31,14.25a1.62,1.62,0,0,0-1.51-1Zm-2-14.88a5.79,5.79,0,0,0-.29,10.78A102.31,102.31,0,0,1,130.83,91.85Z"/><path class="cls-1" d="M134.62,73H35.36A12.07,12.07,0,0,1,23.3,61V56.77A12.88,12.88,0,0,1,36.16,43.91h84.38A14.1,14.1,0,0,1,134.62,58ZM36.16,47.55a9.23,9.23,0,0,0-9.23,9.22V61a8.44,8.44,0,0,0,8.43,8.42H131V58a10.45,10.45,0,0,0-10.44-10.44Z"/><path class="cls-1" d="M129.94,87.92c-1.09-4.74-10.45-7.24-14.14-7.84H14.11V76.44h102l.14,0c1.57.24,15.41,2.59,17.27,10.63Z"/><rect class="cls-1" x="45.05" y="47.26" width="3.64" height="21.76"/><rect class="cls-1" x="65.72" y="47.81" width="3.64" height="21.76"/><rect class="cls-1" x="87.47" y="47.81" width="3.64" height="21.76"/><rect class="cls-1" x="113.58" y="47.81" width="3.64" height="21.76"/><path class="cls-1" d="M143.75,110H132.07V84.17h11.68Zm-8-3.63h4.4V87.8h-4.4Z"/></svg>