<svg id="Capa_1" data-name="Capa 1" xmlns="http://www.w3.org/2000/svg" viewBox="0 0 150 150"><defs><style>.cls-1{fill:#ffffff;}</style></defs><title>Mesa de trabajo 5 copia</title><path class="cls-1" d="M45.42,91.79,69,98.66a11.85,11.85,0,0,0,7.12-.14l19.81-6.6,4.82,28.9a1.11,1.11,0,0,1-.78,1.24l-18.63,5.32-5.07-14.21-.95-2.65H66l-1,2.42-5.84,13.61a1,1,0,0,1-.88.58,1,1,0,0,1-.29,0L41.9,122a.59.59,0,0,1-.42-.66l3.94-29.55m53.66-5.14L74.83,94.73a7.91,7.91,0,0,1-4.74.09l-28-8.17-4.56,34.16a4.63,4.63,0,0,0,3.18,5l16.1,5.08a4.78,4.78,0,0,0,1.49.23,5,5,0,0,0,4.56-3l5.83-13.6h3.8l5.25,14.69A3.45,3.45,0,0,0,81,131.5a3.4,3.4,0,0,0,1-.13L101,125.9a5.09,5.09,0,0,0,3.63-5.74L99.08,86.65Z"/><path class="cls-1" d="M85.2,23.5l3.33,6.66,1.11,2.21h1.43l1.49,17.87,2.27,27.27L73.21,84.72a2.76,2.76,0,0,1-1.64,0L46.34,77.39l2.25-25.87,1.68-19.34,1-1,1.26-1.26.27-.28.22-.32,3.88-5.82H85.2M100,32.37a5.29,5.29,0,0,1,4.62,2.71l12.48,22.27a.89.89,0,0,1,.07.75.92.92,0,0,1-.49.57l-10.17,4.74-.07,0a.21.21,0,0,1-.19-.13l-5.95-14.88L93.84,32.37H100m-51.65,0L40.92,49.6,35.1,63.18a1.29,1.29,0,0,1-1.2.79,1.22,1.22,0,0,1-.32,0l-11.1-2.77a.63.63,0,0,1-.39-.3.62.62,0,0,1-.05-.48L30.2,35a3.79,3.79,0,0,1,3.62-2.64H48.31M87.68,19.5H54.74l-5.07,7.6-1.26,1.27H33.82a7.81,7.81,0,0,0-7.43,5.42L18.24,59.15A4.61,4.61,0,0,0,21.51,65l11.1,2.77A5.24,5.24,0,0,0,33.9,68a5.31,5.31,0,0,0,4.88-3.22L44.6,51.17,42.07,80.31l28.38,8.28a6.7,6.7,0,0,0,4-.08l24.61-8.2-2.54-30.4,6,14.88A4.18,4.18,0,0,0,108.17,67l10.16-4.74a4.94,4.94,0,0,0,2.22-6.89L108.07,33.12A9.29,9.29,0,0,0,100,28.37H92.11L87.68,19.5Z"/></svg>