<svg id="Capa_1" data-name="Capa 1" xmlns="http://www.w3.org/2000/svg" viewBox="0 0 150 150"><defs><style>.cls-1{fill:#ffffff;}</style></defs><title>Mesa de trabajo 5</title><path class="cls-1" d="M110.87,72.41a40.69,40.69,0,0,0,7.52-13.24c3.85-11.29,9.85-32.1,6.74-44.56l-.67-2.49-2.51.21C109.21,13.56,91.6,26.17,82.24,33.58a40.59,40.59,0,0,0-6.84,6.9A40.55,40.55,0,0,0,68,33.12c-9.48-7.25-27.29-19.57-40.09-20.6l-2.57-.17-.61,2.45C21.85,27.27,28.19,48,32.22,59.22A40.91,40.91,0,0,0,40,72.33l9.93,11.32L29.16,119.31l17.17,1.2,2.13,1.55,6.89,15.82L76,113.48l20.5,23.4,7.2-17.29L122.49,118,101.6,83.34ZM43.71,69a35.84,35.84,0,0,1-6.78-11.51c-5-14-7.75-26.09-7.91-34.68L54.89,58.48l5.73-4.16L35.26,19.38c8,2.92,18.39,9.05,29.71,17.71a35.89,35.89,0,0,1,7.46,7.76l-.15.24-19.75,34Zm9.81,52.11,37.1-50.83-6-4.36L48.38,115.64l-10.87-.76L76.6,47.6a35.75,35.75,0,0,1,8.74-10.1c11.88-9.4,22.73-15.94,30.88-18.73L92.7,51l6.48,4.74L120.86,26c-.54,8.3-3,19.2-7.21,31.53a35.76,35.76,0,0,1-6.59,11.62L56.73,128.52ZM95,127.54l-15.7-17.91,6.36-7.51,12.66,17.44Zm19.06-13.86-10.3.89L90.56,96.36l7.63-9Z"/></svg>